<svg id="Layer_1" data-name="Layer 1" xmlns="http://www.w3.org/2000/svg" width="125.6mm" height="43.74mm" viewBox="0 0 356.03 123.98"><defs><style>.cls-1{fill:#6ea097;}.cls-2{fill:#e28824;}.cls-3,.cls-4,.cls-5,.cls-6,.cls-7,.cls-8,.cls-9{isolation:isolate;}.cls-4,.cls-5,.cls-7,.cls-8{font-size:29px;letter-spacing:-0.02em;}.cls-4,.cls-5,.cls-6{fill:#fff;}.cls-4,.cls-7{font-family:MicrosoftTaiLe, Microsoft Tai Le;}.cls-5,.cls-6,.cls-8,.cls-9{font-family:MicrosoftSansSerif, Microsoft Sans Serif;}.cls-6,.cls-9{font-size:28px;letter-spacing:-0.02em;}.cls-7,.cls-8,.cls-9{fill:#868685;}</style></defs><title>Kencef_Logo</title><path class="cls-1" d="M55.74,78.47H43.63L15,44.52a21.79,21.79,0,0,1-2-2.59h-.2V78.47H4.09V4.25h8.7V39.13H13a21.17,21.17,0,0,1,2-2.53L42.73,4.25H53.55L21.68,39.84Z" transform="translate(0 -1.3)"/><path class="cls-1" d="M102.57,78.47H63.24V4.25h37.68v7.86h-29V36.84H98.73v7.82H71.93v26h30.64Z" transform="translate(0 -1.3)"/><path class="cls-1" d="M174.36,78.47H163.7L125.5,19.31a24.08,24.08,0,0,1-2.38-4.66h-.31a77.2,77.2,0,0,1,.41,10.2V78.47h-8.69V4.25h11.28L163,62.48a53.8,53.8,0,0,1,3,5h.2a79.63,79.63,0,0,1-.52-10.92V4.25h8.7Z" transform="translate(0 -1.3)"/><path class="cls-2" d="M222,79.76q-16.11,0-25.7-10.58t-9.6-28.65q0-18.06,9.6-28.65T222,1.3q12.36,0,21.06,6.67a24.35,24.35,0,0,1,9.78,17.6H242.52a15.37,15.37,0,0,0-6.23-11.44q-5.62-4.24-14.16-4.24-11.55,0-18.27,7.94t-6.73,22.7q0,14.7,6.68,22.67t18.11,8q8.91,0,14.39-4.35t6.21-12.42h10.35q-1.08,12.12-9.52,18.74T222,79.76Z" transform="translate(0 -1.3)"/><path class="cls-1" d="M305,78.47H265.71V4.25h37.68v7.86h-29V36.84H301.2v7.82H274.4v26H305Z" transform="translate(0 -1.3)"/><path class="cls-1" d="M354.68,12.11h-29V37.84h26.81v7.81h-26.8V78.52H317V4.25h37.68Z" transform="translate(0 -1.3)"/><g class="cls-3"><text class="cls-4" transform="translate(0 114)">KENYAN </text><text class="cls-5" transform="translate(113.09 114)">C</text><text class="cls-4" transform="translate(133.4 114)">H</text><text class="cls-6" transform="translate(153.35 114)">I</text><text class="cls-4" transform="translate(160.51 114)">LD EDU</text><text class="cls-5" transform="translate(253.54 114)">C</text><text class="cls-4" transform="translate(273.84 114)">AT</text><text class="cls-6" transform="translate(306.47 114)">I</text><text class="cls-4" transform="translate(313.63 114)">ON</text></g><g class="cls-3"><text class="cls-7" transform="translate(0 114)">KENYAN </text><text class="cls-8" transform="translate(113.09 114)">C</text><text class="cls-7" transform="translate(133.4 114)">H</text><text class="cls-9" transform="translate(153.35 114)">I</text><text class="cls-7" transform="translate(160.51 114)">LD EDU</text><text class="cls-8" transform="translate(253.54 114)">C</text><text class="cls-7" transform="translate(273.84 114)">AT</text><text class="cls-9" transform="translate(306.47 114)">I</text><text class="cls-7" transform="translate(313.63 114)">ON</text></g></svg>