<?xml version="1.0" encoding="utf-8"?>
<!-- Generator: Adobe Illustrator 23.0.1, SVG Export Plug-In . SVG Version: 6.00 Build 0)  -->
<svg version="1.1" id="Layer_1" xmlns="http://www.w3.org/2000/svg" xmlns:xlink="http://www.w3.org/1999/xlink" x="0px" y="0px"
	 viewBox="0 0 512.9 572.3" style="enable-background:new 0 0 512.9 572.3;" xml:space="preserve">
<style type="text/css">
	.st0{clip-path:url(#SVGID_2_);fill:#868685;}
</style>
<g>
	<defs>
		<rect id="SVGID_1_" x="0" y="0" width="512.9" height="572.3"/>
	</defs>
	<clipPath id="SVGID_2_">
		<use xlink:href="#SVGID_1_"  style="overflow:visible;"/>
	</clipPath>
	<path class="st0" d="M364.3,548.5c-1.4-1.1-2.2-2-3-2.8c-20.2-17.8-25.9-42.4-33.1-67.3c-0.7,16.2-1.5,32.5-2.3,51
		c-8.6-4-14.9-7-22-10.2c0-26.7,0-52.8,0-81.3c-20.5,0-40.1,1.4-59.3-0.4c-17.9-1.7-35.6-6.8-55.1-10.8
		c-15.9,28.5-14.8,62.5-27,94.1c-7.3,2.6-15.4,5.5-24.4,8.7c-6.6-18.1,3.6-31.1,5.3-45.2c1.6-13.1,5.4-25.9,8.7-41.4
		c-16.9,4.6-23.8,17.2-33,26.7c-3.7,3.8-5.6,9.4-9.2,13.5c-19.2,21.6-19.3,21.5-19.8,55.6c-8.4,10-18.6,21.9-28.6,33.7
		c-10.4,0-19.7,0-31.9,0c-4.6-5-10.9-11.9-17.6-19.2c0-10,0-20.3,0-32.8c12.4-16.4,29.4-27.5,52.8-29.2c10.7-15,21.2-32,34-47
		c12.4-14.6,27.2-27.2,42.4-42.1c-18.4-21.9-44.1-38.4-60.1-64.9c-16-26.4-25.1-54.3-32.5-85.5c-10.8-5.8-22.8-12.2-35.3-18.9
		c-3.9-7.6-8.1-15.7-12.6-24.5c-4.6-28.8,11.7-52.2,23.7-77.6c12.2-8.2,25.4-13.6,39.2-1.3c58-113.4,179.9-151.7,283.8-103.8
		c1.4-4.8,2.8-9.4,4.5-15.2c14.2-1.3,23.5,6.8,33.5,15.2c39.6,33.2,62,76.7,76.7,125.1c2.4,7.8,4.5,15.7,7.3,25.9
		c15.2,8.2,38.5,10.1,43.4,43.8c0.5,39.8-14.6,67.5-48.9,78c-23.1,59.1-63.8,103.3-124,127.2c5.4,20.2,10.4,38.2,15.1,56.3
		c7.1,27.5,7,27.5,24.4,44.3c19.7,1.1,17.8-2,24.7-7.7c3.2-15.9,6.4-31.9,10.4-51.7c3.1-3.4,7.3-12.7,19.7-12
		c9.6,7,19.9,14.6,31,22.8c2.4,4.9,5.3,10.6,7.8,15.6c0,12.9,0,25,0,38.4c-11.7,4.5-23.5,9-34.5,13.2c-3.9-2.4-7-4.2-11.3-6.7
		c-13.4,15.8-47.4,18.4-48.8,17.9l-1.6-0.3c-6.9-3-3.6-0.8-9.4-4.6L364.3,548.5z M364,54c-14.4,5.3-26.2-3.7-38.8-8.1
		c-33.4-11.6-68-14.9-101.8-6.2c-38.5,9.9-72.4,28.9-100.9,58.7C76.9,146.1,65.3,204.2,74.8,265c6.1,39.2,29.1,72.8,61.7,99.8
		C187.3,407,244,419.5,306,403.6c37.6-9.7,71.4-30,96.7-60.9c29.7-36.3,38-80.6,41.5-125.2c1.5-18.3-6.9-37.3-10.2-56
		c-7.9-44.8-27.9-83-61.7-113.7c-1.1-1-2.9-1.1-4.4-1.6C366.6,48.7,365.4,51.1,364,54z M37.6,220c5.6-9.8,9.6-16.8,11.7-20.5
		c0-16.2,0-28.7,0-42.8C25.3,186.2,22.9,198.2,37.6,220z M474.1,254.1c12.9-24.1,12.9-24.1,3.2-42.9
		C470.5,225.9,473.8,238.8,474.1,254.1z M434.8,514.4c13-6.8,11.6-13.1,6.9-19.7c-1.3-1.8-3.9-2.7-6.9-4.7
		C434.8,497.6,434.8,503.7,434.8,514.4z M873.1-376.5c-1.3-0.1-2.1-0.1-1.2,1.4C872.2-375.6,872.5-375.9,873.1-376.5z"/>
	<path class="st0" d="M371,278.8c-24.5,40.7-60.3,62.8-107.9,64.4c-49.3,1.7-80.6-28.7-110.2-65.1c0-4.3,0-10.5,0-18.9
		c5.1,0.4,10.7-1,13.3,1.3c10,8.4,20.1,17.1,28.2,27.2c15.1,19,36.5,23.4,58.1,27.3c13.1,2.4,24.7-4.8,36.5-9.5
		c25.2-10.2,45.6-27.1,62.6-46.3C365.7,259.9,364.7,272.5,371,278.8z"/>
	<path class="st0" d="M340.6,145.1c8.1,18.3-4.7,28.6-8.5,41.8c2.1,7.3,4.2,14.9,6.3,22.1c-2.3,2-3.6,4.1-5,4.2
		c-5.4,0.4-10.9,0.2-15.3,0.2c-19.5-27.8-18.6-38.7,6.5-73.5C330.1,141.7,336.4,143.7,340.6,145.1z"/>
	<path class="st0" d="M180.9,149.4c3.6-5.8,7.8-12.7,12.7-20.9c6.6,1.8,12.3,3.3,18.9,5.2c0.7,9.4,1.2,17.4,1.8,25.1
		c-4.1,4.9-7.7,9.2-10.4,12.4c1.8,10.2,3.4,19.6,4.9,28.1c-15.7,8.1-20-4.1-27.9-9.7C180.9,176.3,180.9,163.4,180.9,149.4z"/>
</g>
</svg>
