<svg id="Layer_1" data-name="Layer 1" xmlns="http://www.w3.org/2000/svg" viewBox="0 0 927.13 317.03"><defs><style>.cls-1{fill:#0f70b7;}.cls-2{fill:#f29100;}.cls-3,.cls-6{font-size:73.38px;font-family:MicrosoftTaiLe, Microsoft Tai Le;letter-spacing:-0.02em;}.cls-3{fill:#fff;}.cls-4,.cls-5{font-family:MicrosoftSansSerif, Microsoft Sans Serif;}.cls-5{font-size:70.85px;letter-spacing:-0.02em;}.cls-6{fill:#868685;}</style></defs><title>KencefLogo</title><path class="cls-1" d="M170,439.87H139.34L66.78,354a53,53,0,0,1-5-6.55h-.53v92.46h-22V252.06h22v88.28h.53a51.48,51.48,0,0,1,5-6.42L137,252.06h27.37L83.81,342.17Z" transform="translate(-28.95 -241.32)"/><path class="cls-1" d="M288.51,439.87H189V252.06h95.35V272H211v62.47h67.84v19.78H211V420h77.53Z" transform="translate(-28.95 -241.32)"/><path class="cls-1" d="M470.16,439.87h-27l-96.65-149.7a62.09,62.09,0,0,1-6-11.78h-.78q1,6,1,25.8V439.87h-22V252.06h28.55l94,147.34q5.89,9.18,7.6,12.58h.52q-1.31-8.13-1.31-27.64V252.06h22Z" transform="translate(-28.95 -241.32)"/><path class="cls-2" d="M590.78,443.15q-40.72,0-65-26.79t-24.3-72.49q0-45.71,24.3-72.49t65-26.79q31.31,0,53.31,16.9T668.84,306H642.65q-1.57-18.21-15.78-28.94T591,266.34q-29.2,0-46.23,20.1t-17,57.43q0,37.2,16.9,57.37t45.84,20.17q22.53,0,36.41-11T642.65,379h26.19q-2.75,30.64-24.1,47.41T590.78,443.15Z" transform="translate(-28.95 -241.32)"/><path class="cls-1" d="M800.85,439.87H701.32V252.06h95.34V272H723.32v62.47h67.84v19.78H723.32V420h77.53Z" transform="translate(-28.95 -241.32)"/><path class="cls-1" d="M926.45,272H853.1v65H921v19.78H853.1v83.16h-22V252.06h95.35Z" transform="translate(-28.95 -241.32)"/><text class="cls-3" transform="translate(0 291.76)">KENYAN <tspan class="cls-4" x="286.18" y="0">C</tspan><tspan x="337.56" y="0">H</tspan><tspan class="cls-5" x="388.04" y="0">I</tspan><tspan x="406.17" y="0">LD EDU</tspan><tspan class="cls-4" x="641.57" y="0">C</tspan><tspan x="692.95" y="0">AT</tspan><tspan class="cls-5" x="775.51" y="0">I</tspan><tspan x="793.63" y="0">ON</tspan></text><text class="cls-6" transform="translate(0 291.76)">KENYAN <tspan class="cls-4" x="286.18" y="0">C</tspan><tspan x="337.56" y="0">H</tspan><tspan class="cls-5" x="388.04" y="0">I</tspan><tspan x="406.17" y="0">LD EDU</tspan><tspan class="cls-4" x="641.57" y="0">C</tspan><tspan x="692.95" y="0">AT</tspan><tspan class="cls-5" x="775.51" y="0">I</tspan><tspan x="793.63" y="0">ON</tspan></text><text x="-28.95" y="-241.32"/></svg>